<!DOCTYPE svg PUBLIC "-//W3C//DTD SVG 1.1//EN" "http://www.w3.org/Graphics/SVG/1.1/DTD/svg11.dtd">
<!-- Uploaded to: SVG Repo, www.svgrepo.com, Transformed by: SVG Repo Mixer Tools -->
<svg width="256px" height="256px" viewBox="-7.68 -7.68 39.36 39.36" fill="none" xmlns="http://www.w3.org/2000/svg" stroke="#000000" stroke-width="3" transform="rotate(180)matrix(-1, 0, 0, -1, 0, 0)">

    <g id="SVGRepo_bgCarrier" stroke-width="0">

        <rect x="-7.68" y="-7.68" width="39.36" height="39.36" rx="0" fill="#ffffff" strokewidth="0"/>

    </g>

    <g id="SVGRepo_tracerCarrier" stroke-linecap="round" stroke-linejoin="round" stroke="#CCCCCC" stroke-width="0.43200000000000005"/>

    <g id="SVGRepo_iconCarrier"> <path d="M1 12C1 11.4477 1.44772 11 2 11H22C22.5523 11 23 11.4477 23 12C23 12.5523 22.5523 13 22 13H2C1.44772 13 1 12.5523 1 12Z" fill="#ffffff"/> <path d="M1 4C1 3.44772 1.44772 3 2 3H22C22.5523 3 23 3.44772 23 4C23 4.55228 22.5523 5 22 5H2C1.44772 5 1 4.55228 1 4Z" fill="#ffffff"/> <path d="M1 20C1 19.4477 1.44772 19 2 19H22C22.5523 19 23 19.4477 23 20C23 20.5523 22.5523 21 22 21H2C1.44772 21 1 20.5523 1 20Z" fill="#ffffff"/> </g>

</svg>